<?xml version="1.0" standalone="no"?>
<!DOCTYPE svg PUBLIC "-//W3C//DTD SVG 20010904//EN"
 "http://www.w3.org/TR/2001/REC-SVG-20010904/DTD/svg10.dtd">
<svg version="1.0" xmlns="http://www.w3.org/2000/svg"
 width="1024.000000pt" height="1024.000000pt" viewBox="0 0 1024.000000 1024.000000"
 preserveAspectRatio="xMidYMid meet">

<g transform="translate(0.000000,1024.000000) scale(0.100000,-0.100000)"
fill="#000000" stroke="none">
<path d="M4875 9684 c-116 -9 -277 -26 -375 -40 -1008 -145 -1937 -610 -2625
-1315 -438 -449 -750 -913 -966 -1436 -337 -816 -439 -1689 -293 -2503 81
-449 211 -842 410 -1240 462 -921 1218 -1674 2129 -2120 709 -346 1439 -499
2203 -461 589 29 1078 146 1592 380 537 245 989 559 1386 963 545 554 900
1118 1119 1783 257 778 310 1537 160 2290 -117 582 -349 1150 -671 1635 -441
667 -1078 1231 -1793 1590 -507 254 -1001 398 -1561 455 -145 15 -604 27 -715
19z m415 -794 c425 -21 736 -82 1109 -217 801 -289 1523 -872 1946 -1572 246
-408 405 -807 489 -1227 90 -452 94 -964 10 -1409 -111 -592 -342 -1111 -721
-1623 -45 -61 -85 -112 -87 -112 -2 0 -124 122 -272 271 -148 150 -277 279
-286 288 -10 8 -18 18 -18 21 0 3 27 12 60 18 32 7 101 34 152 59 77 39 108
62 183 137 99 99 155 190 155 249 0 68 -89 125 -159 101 -14 -5 -42 -32 -61
-59 -54 -77 -152 -171 -208 -199 -72 -36 -143 -53 -258 -61 l-99 -7 -107 109
-108 108 -45 128 c-25 70 -45 134 -45 141 0 9 33 16 108 24 403 44 715 255
817 552 27 79 29 95 28 230 0 128 -3 156 -27 235 -81 268 -230 503 -458 720
-141 135 -263 220 -448 313 -295 149 -508 199 -897 209 l-223 6 0 76 c0 53 -5
83 -15 98 -16 23 -70 43 -117 43 l-28 0 0 105 0 105 1154 0 1155 0 28 24 c27
23 28 28 28 111 0 84 -1 88 -30 112 l-29 26 -236 -7 c-129 -4 -512 -16 -850
-26 -338 -11 -748 -23 -911 -26 l-296 -7 -7 41 c-9 60 -32 72 -142 72 -108 0
-133 -13 -143 -76 l-7 -39 -149 3 c-83 2 -339 12 -570 22 -231 11 -530 25
-665 31 l-245 11 -490 486 c-269 267 -499 494 -509 503 -18 17 -18 18 10 43
135 121 391 293 594 399 506 266 1014 411 1525 435 77 4 156 8 175 10 19 1
127 -3 240 -8z m-2170 -2275 l895 -895 -70 0 c-77 0 -405 -18 -970 -54 -203
-13 -371 -21 -373 -18 -27 69 -471 915 -491 935 -25 26 -33 28 -110 28 -57 0
-90 -4 -106 -15 -29 -19 -49 -78 -41 -119 8 -40 95 -321 189 -612 40 -121 73
-225 75 -231 2 -8 -31 -13 -100 -16 -150 -7 -168 -24 -168 -156 0 -122 35
-152 181 -152 73 0 80 -2 74 -17 -42 -106 -240 -650 -250 -691 -11 -42 -12
-64 -4 -98 17 -67 37 -79 135 -79 76 0 86 2 108 25 13 14 118 165 232 335 292
436 296 441 325 437 13 -2 166 -30 339 -62 173 -32 475 -88 670 -124 195 -37
365 -68 376 -71 15 -3 28 -22 44 -65 27 -73 111 -217 176 -302 144 -188 399
-384 597 -458 47 -17 71 -31 70 -41 -1 -8 -29 -104 -62 -214 -33 -110 -67
-226 -76 -257 l-16 -58 -280 0 c-308 0 -325 -3 -349 -60 -7 -18 -11 -53 -8
-87 4 -46 10 -61 32 -80 l27 -23 672 -1 c370 -1 875 -5 1123 -8 l451 -6 536
-530 c295 -291 536 -534 534 -540 -2 -5 -57 -51 -123 -102 -527 -412 -1119
-658 -1804 -750 -211 -28 -728 -25 -942 5 -716 101 -1383 397 -1921 850 -474
399 -881 959 -1096 1507 -168 429 -251 809 -270 1235 -36 826 193 1606 666
2270 81 113 195 259 203 260 3 0 408 -403 900 -895z m2280 30 l0 -105 -40 0
c-65 0 -80 -23 -80 -125 l0 -85 -133 0 c-226 0 -372 -40 -505 -137 -18 -14
-37 -23 -42 -21 -5 2 -139 132 -298 291 l-288 287 693 0 693 0 0 -105z m994
-694 c308 -62 557 -193 794 -416 118 -111 256 -300 311 -428 12 -26 30 -68 41
-93 l20 -45 -583 4 c-645 4 -649 5 -808 72 -209 90 -335 233 -384 437 -19 80
-30 296 -20 412 l7 88 256 -5 c211 -3 277 -8 366 -26z m-1099 -1925 c114 -20
268 -28 352 -18 l72 8 221 -221 c121 -121 220 -222 220 -225 0 -3 -252 -4
-559 -2 l-559 2 12 48 c7 26 39 131 71 235 44 140 62 187 74 187 9 0 52 -7 96
-14z"/>
</g>
</svg>
